<svg width="123" height="60" viewBox="0 0 123 60" fill="none" xmlns="http://www.w3.org/2000/svg">
<path d="M25.6821 17.784C25.4087 17.784 25.272 17.6375 25.272 17.3445V9.82109C25.272 9.52812 25.4087 9.38164 25.6821 9.38164H26.5728C26.8462 9.38164 26.9829 9.52812 26.9829 9.82109V12.1531C26.9829 12.3875 26.9731 12.6219 26.9536 12.8562H26.9946L29.8423 9.72734C30.0532 9.49687 30.2329 9.38164 30.3813 9.38164H31.5591C32.0161 9.38164 32.0903 9.54961 31.7817 9.88554L29.1157 12.8035L31.9692 17.2801C32.1841 17.616 32.1099 17.784 31.7466 17.784H30.6509C30.4478 17.784 30.272 17.6687 30.1235 17.4383L27.9673 14.0574L26.9829 15.1648V17.3445C26.9829 17.6375 26.8462 17.784 26.5728 17.784H25.6821Z" fill="black"/>
<path d="M60.6716 16.591C60.3904 16.591 60.2986 16.4621 60.3962 16.2043L63.2673 8.6633C63.3884 8.34689 63.572 8.18869 63.8181 8.18869H64.6384C64.8845 8.18869 65.0681 8.34689 65.1892 8.6633L68.0603 16.2043C68.158 16.4621 68.0662 16.591 67.7849 16.591H66.8533C66.5955 16.591 66.4158 16.4563 66.3142 16.1867L65.7166 14.6106H62.74L62.1423 16.1867C62.0408 16.4563 61.8611 16.591 61.6033 16.591H60.6716ZM63.2849 13.1574H65.1716L64.4509 11.2942C64.365 11.0754 64.3123 10.9172 64.2927 10.8195C64.2771 10.718 64.2595 10.5695 64.24 10.3742H64.2166C64.197 10.5695 64.1775 10.718 64.158 10.8195C64.1423 10.9172 64.0916 11.0754 64.0056 11.2942L63.2849 13.1574Z" fill="black"/>
<path d="M89.3533 11.9999C89.0798 11.9999 88.9431 11.8535 88.9431 11.5605V4.03705C88.9431 3.74408 89.0798 3.5976 89.3533 3.5976H90.2439C90.5173 3.5976 90.6541 3.74408 90.6541 4.03705V11.5605C90.6541 11.8535 90.5173 11.9999 90.2439 11.9999H89.3533Z" fill="black"/>
<path d="M69.3359 8.67741C73.2009 4.88971 78.5047 2.50015 84.5051 4.00024" stroke="black" stroke-linecap="round"/>
<path d="M94.006 14.0008C97.8092 23.0901 75.5004 21.9994 69.5 31.5" stroke="black" stroke-linecap="round"/>
<path d="M61.3867 40.172C61.1133 40.172 60.9766 40.0255 60.9766 39.7325V32.2091C60.9766 31.9161 61.1133 31.7696 61.3867 31.7696H64.0996C65.3066 31.7696 66.1875 31.9571 66.7422 32.3321C67.2969 32.7032 67.5742 33.3087 67.5742 34.1485C67.5742 34.7735 67.3496 35.2716 66.9004 35.6427C66.4512 36.0138 65.8809 36.2599 65.1895 36.381V36.3927C65.5645 36.5333 65.8477 36.7286 66.0391 36.9786C66.2305 37.2286 66.3867 37.4474 66.5078 37.6349L67.7969 39.6681C68.0117 40.004 67.9375 40.172 67.5742 40.172H66.5547C66.3398 40.172 66.1641 40.0567 66.0273 39.8263L64.8438 37.8517C64.7148 37.6407 64.4785 37.4103 64.1348 37.1603C63.7949 36.9064 63.457 36.7794 63.1211 36.7794H62.6875V39.7325C62.6875 40.0255 62.5508 40.172 62.2773 40.172H61.3867ZM62.6875 35.3263H63.7363C64.5176 35.3263 65.0723 35.2384 65.4004 35.0626C65.7324 34.8829 65.8984 34.5997 65.8984 34.213C65.8984 33.7911 65.7383 33.5177 65.418 33.3927C65.1016 33.2638 64.6348 33.1993 64.0176 33.1993H62.6875V35.3263Z" fill="black"/>
<path d="M85.5039 45.7988C85.5039 44.4512 85.8516 43.3809 86.5469 42.5879C87.2422 41.7949 88.2344 41.3984 89.5234 41.3984C90.8125 41.3984 91.8047 41.7949 92.5 42.5879C93.1953 43.3809 93.543 44.4512 93.543 45.7988C93.543 47.1465 93.1953 48.2168 92.5 49.0098C91.8047 49.8027 90.8125 50.1992 89.5234 50.1992C88.2344 50.1992 87.2422 49.8027 86.5469 49.0098C85.8516 48.2168 85.5039 47.1465 85.5039 45.7988ZM87.332 45.7988C87.332 46.7754 87.5059 47.5234 87.8535 48.043C88.2051 48.5586 88.7617 48.8164 89.5234 48.8164C90.2852 48.8164 90.8398 48.5586 91.1875 48.043C91.5391 47.5234 91.7148 46.7754 91.7148 45.7988C91.7148 44.8223 91.5391 44.0762 91.1875 43.5605C90.8398 43.041 90.2852 42.7812 89.5234 42.7812C88.7617 42.7812 88.2051 43.041 87.8535 43.5605C87.5059 44.0762 87.332 44.8223 87.332 45.7988Z" fill="black"/>
<path d="M116.045 36.3748C115.802 36.1912 115.744 36.0056 115.869 35.8181L116.32 35.1385C116.469 34.9158 116.685 34.9041 116.97 35.1033C117.189 35.2556 117.474 35.4138 117.826 35.5779C118.181 35.7381 118.554 35.8181 118.945 35.8181C119.219 35.8181 119.482 35.7869 119.736 35.7244C119.99 35.6619 120.183 35.5408 120.316 35.3611C120.449 35.1814 120.515 34.9685 120.515 34.7224C120.515 34.5467 120.486 34.3924 120.427 34.2596C120.369 34.1267 120.273 34.0174 120.14 33.9314C120.008 33.8455 119.871 33.7732 119.73 33.7146C119.484 33.6131 119.174 33.5135 118.799 33.4158C118.427 33.3142 118.06 33.1931 117.697 33.0525C117.373 32.9275 117.076 32.7556 116.806 32.5369C116.537 32.3181 116.328 32.0721 116.179 31.7986C116.031 31.5252 115.957 31.1599 115.957 30.7029C115.957 30.1599 116.133 29.6951 116.484 29.3084C116.836 28.9217 117.24 28.6736 117.697 28.5642C118.154 28.4549 118.615 28.4002 119.08 28.4002C119.541 28.4002 120.015 28.4705 120.504 28.6111C120.996 28.7517 121.367 28.9275 121.617 29.1385C121.863 29.3455 121.924 29.533 121.799 29.701L121.324 30.3396C121.164 30.5584 120.949 30.576 120.679 30.3924C120.508 30.2752 120.271 30.1443 119.97 29.9998C119.674 29.8553 119.363 29.783 119.039 29.783C118.808 29.783 118.595 29.8025 118.4 29.8416C118.209 29.8806 118.039 29.9744 117.89 30.1228C117.742 30.2713 117.668 30.4549 117.668 30.6736C117.668 30.8846 117.722 31.0564 117.832 31.1892C117.941 31.3181 118.062 31.4158 118.195 31.4822C118.328 31.5447 118.463 31.5974 118.599 31.6404C119.021 31.7771 119.398 31.8982 119.73 32.0037C120.062 32.1053 120.369 32.2185 120.65 32.3435C121.041 32.5193 121.34 32.6951 121.547 32.8709C121.754 33.0467 121.924 33.2869 122.056 33.5916C122.193 33.8963 122.261 34.2596 122.261 34.6814C122.261 35.3064 122.062 35.824 121.664 36.2342C121.265 36.6404 120.822 36.9021 120.334 37.0193C119.849 37.1404 119.377 37.201 118.916 37.201C118.236 37.201 117.683 37.1346 117.258 37.0017C116.832 36.8728 116.427 36.6638 116.045 36.3748Z" fill="black"/>
<path d="M94 40.7999C98.9939 35.1743 104.963 28.9074 112.501 31.6764" stroke="black" stroke-linecap="round"/>
<path d="M35.9712 18.2744C43.5027 26.0015 49.5031 26.0015 57.0036 18.2744" stroke="black" stroke-linecap="round"/>
<path d="M62.0001 44.5C60.5 50.5 70.5003 59.5 82.5002 50.5" stroke="black" stroke-linecap="round"/>
<path d="M14 33C16.5 39.5 30.5 48 38 48" stroke="black" stroke-linecap="round"/>
<path d="M2.827 26.4816H8.162V27.5266H2.827V26.4816ZM2.662 28.3626H8.338V29.4406H2.662V28.3626ZM5.962 26.8116H7.117V31.7176H5.962V26.8116ZM3.817 26.8556H4.939V28.9676C4.939 29.6716 4.642 31.1236 3.487 31.9156C3.311 31.6846 2.915 31.3326 2.64 31.1566C3.575 30.5846 3.817 29.5176 3.817 28.9566V26.8556ZM1.518 23.5116H4.29V24.3696H1.518V23.5116ZM6.622 23.5116H9.405V24.3696H6.622V23.5116ZM8.888 22.0046H10.186V30.3866C10.186 31.0466 10.065 31.4206 9.669 31.6406C9.262 31.8606 8.69 31.8936 7.843 31.8826C7.81 31.5306 7.634 30.9146 7.458 30.5736C7.942 30.5956 8.492 30.5956 8.657 30.5956C8.833 30.5956 8.888 30.5296 8.888 30.3646V22.0046ZM1.639 22.0046H5.126V25.9206H1.639V24.9746H3.883V22.9506H1.639V22.0046ZM9.559 22.0046V22.9506H7.095V24.9966H9.559V25.9426H5.841V22.0046H9.559ZM0.858 22.0046H2.156V31.9156H0.858V22.0046Z" fill="black"/>
<path d="M46.984 53.461H50.449V54.594H46.984V53.461ZM47.457 45.706H50.251V46.828H47.457V45.706ZM46.445 50.887H50.988V54.924H49.734V51.998H47.655V54.957H46.445V50.887ZM49.789 45.706H50.02L50.251 45.662L51.087 46.014C50.284 48.775 48.425 50.535 46.192 51.481C46.038 51.173 45.708 50.722 45.444 50.48C47.435 49.754 49.173 48.071 49.789 45.915V45.706ZM47.501 44.65L48.755 44.958C48.26 46.443 47.446 47.873 46.555 48.775C46.335 48.544 45.829 48.115 45.532 47.928C46.39 47.158 47.116 45.926 47.501 44.65ZM47.534 46.322C48.161 47.807 49.591 49.512 51.835 50.216C51.571 50.469 51.197 50.986 51.021 51.327C48.755 50.447 47.314 48.522 46.643 46.894L47.534 46.322ZM41.77 49.512H42.848V53.516H41.77V49.512ZM43.002 46.201V47.598H44.454V46.201H43.002ZM41.858 45.068H45.664V48.731H41.858V45.068ZM43.398 48.269H44.564V53.186H43.398V48.269ZM41.286 53.307C42.452 53.098 44.212 52.713 45.862 52.339L45.983 53.505C44.432 53.89 42.76 54.286 41.506 54.572L41.286 53.307ZM43.86 50.018H45.774V51.173H43.86V50.018Z" fill="black"/>
</svg>
