<svg width="156" height="81" viewBox="0 0 156 81" fill="none" xmlns="http://www.w3.org/2000/svg">
<path d="M33.2168 23.5208C32.8887 23.5208 32.7246 23.345 32.7246 22.9934V13.9653C32.7246 13.6137 32.8887 13.4379 33.2168 13.4379H34.2855C34.6137 13.4379 34.7777 13.6137 34.7777 13.9653V16.7637C34.7777 17.045 34.766 17.3262 34.7426 17.6075H34.7918L38.209 13.8528C38.4621 13.5762 38.6777 13.4379 38.8559 13.4379H40.2691C40.8176 13.4379 40.9066 13.6395 40.5363 14.0426L37.3371 17.5442L40.7613 22.9161C41.0191 23.3192 40.9301 23.5208 40.4941 23.5208H39.1793C38.9355 23.5208 38.7246 23.3825 38.5465 23.1059L35.959 19.0489L34.7777 20.3778V22.9934C34.7777 23.345 34.6137 23.5208 34.2855 23.5208H33.2168Z" fill="black"/>
<path d="M74.0016 24.4894C73.6641 24.4894 73.5539 24.3347 73.6711 24.0253L77.1164 14.9761C77.2617 14.5964 77.4821 14.4066 77.7774 14.4066H78.7617C79.0571 14.4066 79.2774 14.5964 79.4227 14.9761L82.868 24.0253C82.9852 24.3347 82.875 24.4894 82.5375 24.4894H81.4196C81.1102 24.4894 80.8946 24.3277 80.7727 24.0042L80.0555 22.1128H76.4836L75.7664 24.0042C75.6446 24.3277 75.4289 24.4894 75.1196 24.4894H74.0016ZM77.1375 20.3691H79.4016L78.5367 18.1331C78.4336 17.8706 78.3703 17.6808 78.3469 17.5636C78.3281 17.4417 78.3071 17.2636 78.2836 17.0292H78.2555C78.2321 17.2636 78.2086 17.4417 78.1852 17.5636C78.1664 17.6808 78.1055 17.8706 78.0024 18.1331L77.1375 20.3691Z" fill="black"/>
<path d="M112.86 15.3804C112.532 15.3804 112.368 15.2046 112.368 14.853V5.8249C112.368 5.47334 112.532 5.29756 112.86 5.29756H113.928C114.257 5.29756 114.421 5.47334 114.421 5.8249V14.853C114.421 15.2046 114.257 15.3804 113.928 15.3804H112.86Z" fill="black"/>
<path d="M85.5984 16.7926L103.002 10.975" stroke="black" stroke-width="1.2"/>
<path d="M108.77 19.1155L87.1559 47.7474" stroke="black" stroke-width="1.2"/>
<path d="M78.4594 62.3844C78.1312 62.3844 77.9672 62.2086 77.9672 61.8571V52.8289C77.9672 52.4774 78.1312 52.3016 78.4594 52.3016H81.7148C83.1633 52.3016 84.2203 52.5266 84.8859 52.9766C85.5515 53.4219 85.8844 54.1485 85.8844 55.1563C85.8844 55.9063 85.6148 56.5039 85.0758 56.9492C84.5367 57.3946 83.8523 57.6899 83.0226 57.8352V57.8492C83.4726 58.018 83.8125 58.2524 84.0422 58.5524C84.2719 58.8524 84.4594 59.1149 84.6047 59.3399L86.1515 61.7797C86.4094 62.1828 86.3203 62.3844 85.8844 62.3844H84.6609C84.4031 62.3844 84.1922 62.2461 84.0281 61.9696L82.6078 59.6C82.4531 59.3469 82.1695 59.0703 81.757 58.7703C81.3492 58.4656 80.9437 58.3133 80.5406 58.3133H80.0203V61.8571C80.0203 62.2086 79.8562 62.3844 79.5281 62.3844H78.4594ZM80.0203 56.5696H81.2789C82.2164 56.5696 82.882 56.4641 83.2758 56.2531C83.6742 56.0375 83.8734 55.6977 83.8734 55.2336C83.8734 54.7274 83.6812 54.3992 83.2969 54.2492C82.9172 54.0946 82.357 54.0172 81.6164 54.0172H80.0203V56.5696Z" fill="black"/>
<path d="M108.247 70.1781C108.247 68.5609 108.664 67.2765 109.499 66.325C110.333 65.3734 111.524 64.8976 113.071 64.8976C114.618 64.8976 115.808 65.3734 116.643 66.325C117.477 67.2765 117.894 68.5609 117.894 70.1781C117.894 71.7953 117.477 73.0796 116.643 74.0312C115.808 74.9828 114.618 75.4585 113.071 75.4585C111.524 75.4585 110.333 74.9828 109.499 74.0312C108.664 73.0796 108.247 71.7953 108.247 70.1781ZM110.441 70.1781C110.441 71.35 110.65 72.2476 111.067 72.871C111.489 73.4898 112.157 73.7992 113.071 73.7992C113.985 73.7992 114.65 73.4898 115.068 72.871C115.489 72.2476 115.7 71.35 115.7 70.1781C115.7 69.0062 115.489 68.1109 115.068 67.4921C114.65 66.8687 113.985 66.557 113.071 66.557C112.157 66.557 111.489 66.8687 111.067 67.4921C110.65 68.1109 110.441 69.0062 110.441 70.1781Z" fill="black"/>
<path d="M147.139 55.7372C146.849 55.5168 146.778 55.2942 146.928 55.0692L147.47 54.2536C147.648 53.9864 147.908 53.9723 148.25 54.2114C148.513 54.3942 148.855 54.584 149.277 54.7809C149.703 54.9731 150.151 55.0692 150.62 55.0692C150.948 55.0692 151.264 55.0317 151.569 54.9567C151.874 54.8817 152.106 54.7364 152.265 54.5208C152.425 54.3051 152.504 54.0497 152.504 53.7543C152.504 53.5434 152.469 53.3583 152.399 53.1989C152.328 53.0395 152.214 52.9083 152.054 52.8051C151.895 52.702 151.731 52.6153 151.562 52.545C151.267 52.4231 150.894 52.3036 150.444 52.1864C149.999 52.0645 149.558 51.9192 149.122 51.7504C148.733 51.6004 148.377 51.3942 148.053 51.1317C147.73 50.8692 147.479 50.5739 147.301 50.2458C147.123 49.9176 147.034 49.4793 147.034 48.9309C147.034 48.2793 147.245 47.7215 147.667 47.2575C148.089 46.7934 148.574 46.4958 149.122 46.3645C149.671 46.2333 150.224 46.1676 150.782 46.1676C151.335 46.1676 151.904 46.252 152.49 46.4208C153.081 46.5895 153.526 46.8004 153.826 47.0536C154.121 47.302 154.194 47.527 154.044 47.7286L153.475 48.495C153.282 48.7575 153.025 48.7786 152.701 48.5583C152.495 48.4176 152.211 48.2606 151.85 48.0872C151.494 47.9137 151.121 47.827 150.732 47.827C150.456 47.827 150.2 47.8504 149.966 47.8973C149.736 47.9442 149.532 48.0567 149.354 48.2348C149.176 48.4129 149.087 48.6333 149.087 48.8958C149.087 49.1489 149.153 49.3551 149.284 49.5145C149.415 49.6692 149.561 49.7864 149.72 49.8661C149.879 49.9411 150.041 50.0043 150.205 50.0559C150.711 50.22 151.164 50.3653 151.562 50.4918C151.961 50.6137 152.328 50.7497 152.666 50.8997C153.135 51.1106 153.493 51.3215 153.742 51.5325C153.99 51.7434 154.194 52.0317 154.353 52.3973C154.518 52.7629 154.6 53.1989 154.6 53.7051C154.6 54.4551 154.361 55.0762 153.882 55.5684C153.404 56.0559 152.872 56.37 152.286 56.5106C151.705 56.6559 151.138 56.7286 150.585 56.7286C149.769 56.7286 149.106 56.6489 148.595 56.4895C148.084 56.3348 147.599 56.084 147.139 55.7372Z" fill="black"/>
<path d="M120.841 66.5546L142.174 55.6071" stroke="black" stroke-width="1.2"/>
<path d="M43.1625 17.5083L69.268 18.0698" stroke="black" stroke-width="1.2"/>
<path d="M89.4017 60.379L105.121 68.2388" stroke="black" stroke-width="1.2"/>
<path d="M3.7008 44.2718H10.6848V45.6398H3.7008V44.2718ZM3.4848 46.7342H10.9152V48.1454H3.4848V46.7342ZM7.8048 44.7038H9.3168V51.1262H7.8048V44.7038ZM4.9968 44.7614H6.4656V47.5262C6.4656 48.4478 6.0768 50.3486 4.5648 51.3854C4.3344 51.083 3.816 50.6222 3.456 50.3918C4.68 49.643 4.9968 48.2462 4.9968 47.5118V44.7614ZM1.9872 40.3838H5.616V41.507H1.9872V40.3838ZM8.6688 40.3838H12.312V41.507H8.6688V40.3838ZM11.6352 38.411H13.3344V49.3838C13.3344 50.2478 13.176 50.7374 12.6576 51.0254C12.1248 51.3134 11.376 51.3566 10.2672 51.3422C10.224 50.8814 9.9936 50.075 9.7632 49.6286C10.3968 49.6574 11.1168 49.6574 11.3328 49.6574C11.5632 49.6574 11.6352 49.571 11.6352 49.355V38.411ZM2.1456 38.411H6.7104V43.5374H2.1456V42.299H5.0832V39.6494H2.1456V38.411ZM12.5136 38.411V39.6494H9.288V42.3278H12.5136V43.5662H7.6464V38.411H12.5136ZM1.1232 38.411H2.8224V51.3854H1.1232V38.411ZM36.9992 49.3838H41.5352V50.867H36.9992V49.3838ZM37.6184 39.2318H41.276V40.7006H37.6184V39.2318ZM36.2936 46.0142H42.2408V51.299H40.5992V47.4686H37.8776V51.3422H36.2936V46.0142ZM40.6712 39.2318H40.9736L41.276 39.1742L42.3704 39.635C41.3192 43.2494 38.8856 45.5534 35.9624 46.7918C35.7608 46.3886 35.3288 45.7982 34.9832 45.4814C37.5896 44.531 39.8648 42.3278 40.6712 39.5054V39.2318ZM37.676 37.8494L39.3176 38.2526C38.6696 40.1966 37.604 42.0686 36.4376 43.2494C36.1496 42.947 35.4872 42.3854 35.0984 42.1406C36.2216 41.1326 37.172 39.5198 37.676 37.8494ZM37.7192 40.0382C38.54 41.9822 40.412 44.2142 43.3496 45.1358C43.004 45.467 42.5144 46.1438 42.284 46.5902C39.3176 45.4382 37.4312 42.9182 36.5528 40.787L37.7192 40.0382ZM30.1736 44.2142H31.5848V49.4558H30.1736V44.2142ZM31.7864 39.8798V41.7086H33.6872V39.8798H31.7864ZM30.2888 38.3966H35.2712V43.1918H30.2888V38.3966ZM32.3048 42.587H33.8312V49.0238H32.3048V42.587ZM29.54 49.1822C31.0664 48.9086 33.3704 48.4046 35.5304 47.915L35.6888 49.4414C33.6584 49.9454 31.4696 50.4638 29.828 50.8382L29.54 49.1822ZM32.9096 44.8766H35.4152V46.3886H32.9096V44.8766Z" fill="black"/>
</svg>
