<svg width="130" height="67" viewBox="0 0 130 67" fill="none" xmlns="http://www.w3.org/2000/svg">
<path d="M25.6821 17.8489C25.4087 17.8489 25.272 17.7025 25.272 17.4095V9.88605C25.272 9.59308 25.4087 9.44659 25.6821 9.44659H26.5728C26.8462 9.44659 26.9829 9.59308 26.9829 9.88605V12.2181C26.9829 12.4525 26.9731 12.6868 26.9536 12.9212H26.9946L29.8423 9.7923C30.0532 9.56183 30.2329 9.44659 30.3813 9.44659H31.5591C32.0161 9.44659 32.0903 9.61456 31.7817 9.9505L29.1157 12.8685L31.9692 17.345C32.1841 17.681 32.1099 17.8489 31.7466 17.8489H30.6509C30.4478 17.8489 30.272 17.7337 30.1235 17.5032L27.9673 14.1224L26.9829 15.2298V17.4095C26.9829 17.7025 26.8462 17.8489 26.5728 17.8489H25.6821Z" fill="white"/>
<path d="M60.6716 16.656C60.3904 16.656 60.2986 16.5271 60.3962 16.2693L63.2673 8.72824C63.3884 8.41183 63.572 8.25363 63.8181 8.25363H64.6384C64.8845 8.25363 65.0681 8.41183 65.1892 8.72824L68.0603 16.2693C68.158 16.5271 68.0662 16.656 67.7849 16.656H66.8533C66.5955 16.656 66.4158 16.5212 66.3142 16.2517L65.7166 14.6755H62.74L62.1423 16.2517C62.0408 16.5212 61.8611 16.656 61.6033 16.656H60.6716ZM63.2849 13.2224H65.1716L64.4509 11.3591C64.365 11.1404 64.3123 10.9821 64.2927 10.8845C64.2771 10.7829 64.2595 10.6345 64.24 10.4392H64.2166C64.197 10.6345 64.1775 10.7829 64.158 10.8845C64.1423 10.9821 64.0916 11.1404 64.0056 11.3591L63.2849 13.2224Z" fill="white"/>
<path d="M89.3533 12.0649C89.0798 12.0649 88.9431 11.9184 88.9431 11.6254V4.10199C88.9431 3.80902 89.0798 3.66254 89.3533 3.66254H90.2439C90.5173 3.66254 90.6541 3.80902 90.6541 4.10199V11.6254C90.6541 11.9184 90.5173 12.0649 90.2439 12.0649H89.3533Z" fill="white"/>
<path d="M69.3359 8.74234C73.2009 4.95463 78.5047 2.56508 84.5051 4.06517" stroke="white" stroke-linecap="round"/>
<path d="M94.006 14.0657C97.8092 23.155 75.5004 22.0644 69.5 31.565" stroke="white" stroke-linecap="round"/>
<path d="M61.3867 40.2369C61.1133 40.2369 60.9766 40.0905 60.9766 39.7975V32.274C60.9766 31.9811 61.1133 31.8346 61.3867 31.8346H64.0996C65.3066 31.8346 66.1875 32.0221 66.7422 32.3971C67.2969 32.7682 67.5742 33.3737 67.5742 34.2135C67.5742 34.8385 67.3496 35.3365 66.9004 35.7076C66.4512 36.0787 65.8809 36.3248 65.1895 36.4459V36.4576C65.5645 36.5983 65.8477 36.7936 66.0391 37.0436C66.2305 37.2936 66.3867 37.5123 66.5078 37.6998L67.7969 39.733C68.0117 40.069 67.9375 40.2369 67.5742 40.2369H66.5547C66.3398 40.2369 66.1641 40.1217 66.0273 39.8912L64.8438 37.9166C64.7148 37.7057 64.4785 37.4752 64.1348 37.2252C63.7949 36.9713 63.457 36.8444 63.1211 36.8444H62.6875V39.7975C62.6875 40.0905 62.5508 40.2369 62.2773 40.2369H61.3867ZM62.6875 35.3912H63.7363C64.5176 35.3912 65.0723 35.3033 65.4004 35.1276C65.7324 34.9479 65.8984 34.6647 65.8984 34.278C65.8984 33.8561 65.7383 33.5826 65.418 33.4576C65.1016 33.3287 64.6348 33.2643 64.0176 33.2643H62.6875V35.3912Z" fill="white"/>
<path d="M85.5039 45.8638C85.5039 44.5161 85.8516 43.4458 86.5469 42.6528C87.2422 41.8599 88.2344 41.4634 89.5234 41.4634C90.8125 41.4634 91.8047 41.8599 92.5 42.6528C93.1953 43.4458 93.543 44.5161 93.543 45.8638C93.543 47.2114 93.1953 48.2817 92.5 49.0747C91.8047 49.8677 90.8125 50.2642 89.5234 50.2642C88.2344 50.2642 87.2422 49.8677 86.5469 49.0747C85.8516 48.2817 85.5039 47.2114 85.5039 45.8638ZM87.332 45.8638C87.332 46.8403 87.5059 47.5884 87.8535 48.1079C88.2051 48.6235 88.7617 48.8813 89.5234 48.8813C90.2852 48.8813 90.8398 48.6235 91.1875 48.1079C91.5391 47.5884 91.7148 46.8403 91.7148 45.8638C91.7148 44.8872 91.5391 44.1411 91.1875 43.6255C90.8398 43.106 90.2852 42.8462 89.5234 42.8462C88.7617 42.8462 88.2051 43.106 87.8535 43.6255C87.5059 44.1411 87.332 44.8872 87.332 45.8638Z" fill="white"/>
<path d="M114.045 35.4397C113.802 35.2561 113.744 35.0706 113.869 34.8831L114.32 34.2034C114.469 33.9807 114.685 33.969 114.97 34.1682C115.189 34.3206 115.474 34.4788 115.826 34.6429C116.181 34.803 116.554 34.8831 116.945 34.8831C117.219 34.8831 117.482 34.8518 117.736 34.7893C117.99 34.7268 118.183 34.6057 118.316 34.4261C118.449 34.2464 118.515 34.0335 118.515 33.7874C118.515 33.6116 118.486 33.4573 118.427 33.3245C118.369 33.1917 118.273 33.0823 118.14 32.9964C118.008 32.9104 117.871 32.8382 117.73 32.7796C117.484 32.678 117.174 32.5784 116.799 32.4807C116.427 32.3792 116.06 32.2581 115.697 32.1175C115.373 31.9925 115.076 31.8206 114.806 31.6018C114.537 31.3831 114.328 31.137 114.179 30.8636C114.031 30.5901 113.957 30.2249 113.957 29.7679C113.957 29.2249 114.133 28.76 114.484 28.3733C114.836 27.9866 115.24 27.7386 115.697 27.6292C116.154 27.5198 116.615 27.4651 117.08 27.4651C117.541 27.4651 118.015 27.5354 118.504 27.6761C118.996 27.8167 119.367 27.9925 119.617 28.2034C119.863 28.4104 119.924 28.5979 119.799 28.7659L119.324 29.4046C119.164 29.6233 118.949 29.6409 118.679 29.4573C118.508 29.3401 118.271 29.2093 117.97 29.0647C117.674 28.9202 117.363 28.8479 117.039 28.8479C116.808 28.8479 116.595 28.8675 116.4 28.9065C116.209 28.9456 116.039 29.0393 115.89 29.1878C115.742 29.3362 115.668 29.5198 115.668 29.7386C115.668 29.9495 115.722 30.1214 115.832 30.2542C115.941 30.3831 116.062 30.4807 116.195 30.5471C116.328 30.6096 116.463 30.6624 116.599 30.7054C117.021 30.8421 117.398 30.9632 117.73 31.0686C118.062 31.1702 118.369 31.2835 118.65 31.4085C119.041 31.5843 119.34 31.76 119.547 31.9358C119.754 32.1116 119.924 32.3518 120.056 32.6565C120.193 32.9612 120.261 33.3245 120.261 33.7464C120.261 34.3714 120.062 34.8889 119.664 35.2991C119.265 35.7054 118.822 35.9671 118.334 36.0843C117.849 36.2054 117.377 36.2659 116.916 36.2659C116.236 36.2659 115.683 36.1995 115.258 36.0667C114.832 35.9378 114.427 35.7288 114.045 35.4397Z" fill="white"/>
<path d="M93 39.8648C97.5 33.5649 103.5 29.0649 111.501 30.7413" stroke="white" stroke-linecap="round"/>
<path d="M36 18.0649C43.5199 24.7316 49.5111 24.7316 57 18.0649" stroke="white" stroke-linecap="round"/>
<path d="M62 44.5649C60.4999 50.5649 70.5002 59.5649 82.5001 50.5649" stroke="white" stroke-linecap="round"/>
<path d="M14 33.0649C16.5 39.5649 30.5 48.0649 38 48.0649" stroke="white" stroke-linecap="round"/>
<path d="M2.827 26.5466H8.162V27.5916H2.827V26.5466ZM2.662 28.4276H8.338V29.5056H2.662V28.4276ZM5.962 26.8766H7.117V31.7826H5.962V26.8766ZM3.817 26.9206H4.939V29.0326C4.939 29.7366 4.642 31.1886 3.487 31.9806C3.311 31.7496 2.915 31.3976 2.64 31.2216C3.575 30.6496 3.817 29.5826 3.817 29.0216V26.9206ZM1.518 23.5766H4.29V24.4346H1.518V23.5766ZM6.622 23.5766H9.405V24.4346H6.622V23.5766ZM8.888 22.0696H10.186V30.4516C10.186 31.1116 10.065 31.4856 9.669 31.7056C9.262 31.9256 8.69 31.9586 7.843 31.9476C7.81 31.5956 7.634 30.9796 7.458 30.6386C7.942 30.6606 8.492 30.6606 8.657 30.6606C8.833 30.6606 8.888 30.5946 8.888 30.4296V22.0696ZM1.639 22.0696H5.126V25.9856H1.639V25.0396H3.883V23.0156H1.639V22.0696ZM9.559 22.0696V23.0156H7.095V25.0616H9.559V26.0076H5.841V22.0696H9.559ZM0.858 22.0696H2.156V31.9806H0.858V22.0696Z" fill="white"/>
<path d="M46.984 53.5259H50.449V54.6589H46.984V53.5259ZM47.457 45.7709H50.251V46.8929H47.457V45.7709ZM46.445 50.9519H50.988V54.9889H49.734V52.0629H47.655V55.0219H46.445V50.9519ZM49.789 45.7709H50.02L50.251 45.7269L51.087 46.0789C50.284 48.8399 48.425 50.5999 46.192 51.5459C46.038 51.2379 45.708 50.7869 45.444 50.5449C47.435 49.8189 49.173 48.1359 49.789 45.9799V45.7709ZM47.501 44.7149L48.755 45.0229C48.26 46.5079 47.446 47.9379 46.555 48.8399C46.335 48.6089 45.829 48.1799 45.532 47.9929C46.39 47.2229 47.116 45.9909 47.501 44.7149ZM47.534 46.3869C48.161 47.8719 49.591 49.5769 51.835 50.2809C51.571 50.5339 51.197 51.0509 51.021 51.3919C48.755 50.5119 47.314 48.5869 46.643 46.9589L47.534 46.3869ZM41.77 49.5769H42.848V53.5809H41.77V49.5769ZM43.002 46.2659V47.6629H44.454V46.2659H43.002ZM41.858 45.1329H45.664V48.7959H41.858V45.1329ZM43.398 48.3339H44.564V53.2509H43.398V48.3339ZM41.286 53.3719C42.452 53.1629 44.212 52.7779 45.862 52.4039L45.983 53.5699C44.432 53.9549 42.76 54.3509 41.506 54.6369L41.286 53.3719ZM43.86 50.0829H45.774V51.2379H43.86V50.0829Z" fill="white"/>
</svg>
